HIERARCHY
ROOT Hips
{
    OFFSET   0.000000   0.000000   0.000000
    CHANNELS 6 Xposition Yposition Zposition Zrotation Xrotation Yrotation
    JOINT Chest
    {
        OFFSET   0.000000   8.007230   0.000000
        CHANNELS 3 Zrotation Xrotation Yrotation
        JOINT Chest2
        {
            OFFSET   0.000000  22.077100   0.000000
            CHANNELS 3 Zrotation Xrotation Yrotation
            JOINT Neck
            {
                OFFSET   0.000000  23.255100   0.000000
                CHANNELS 3 Zrotation Xrotation Yrotation
                JOINT Head
                {
                    OFFSET   0.000000  14.370100   1.956600
                    CHANNELS 3 Zrotation Xrotation Yrotation
                    End Site
                    {
                        OFFSET   0.000000  19.566000   0.000000
                    }
                }
            }
            JOINT LeftCollar
            {
                OFFSET   3.911900  19.017000  -0.467063
                CHANNELS 3 Zrotation Xrotation Yrotation
                JOINT LeftShoulder
                {
                    OFFSET  10.383700   0.000000   0.000000
                    CHANNELS 3 Zrotation Xrotation Yrotation
                    JOINT LeftElbow
                    {
                        OFFSET  26.662100   0.001193   0.000980
                        CHANNELS 3 Zrotation Xrotation Yrotation
                        JOINT LeftWrist
                        {
                            OFFSET  28.869000  -0.000059  -0.000082
                            CHANNELS 3 Zrotation Xrotation Yrotation
                            JOINT LeftFinger0
                            {
                                OFFSET   2.044650  -2.323450   3.252850
                                CHANNELS 3 Zrotation Xrotation Yrotation
                                JOINT LeftFinger01
                                {
                                    OFFSET   3.088130   0.000000   0.000000
                                    CHANNELS 3 Zrotation Xrotation Yrotation
                                    JOINT LeftFinger02
                                    {
                                        OFFSET   2.639460   0.000000   0.000000
                                        CHANNELS 3 Zrotation Xrotation Yrotation
                                        End Site
                                        {
                                            OFFSET   2.582190   0.000000   0.000000
                                        }
                                    }
                                }
                            }
                            JOINT LeftFinger1
                            {
                                OFFSET   8.364480   0.000000   3.252850
                                CHANNELS 3 Zrotation Xrotation Yrotation
                                JOINT LeftFinger11
                                {
                                    OFFSET   4.646930   0.000000   0.000000
                                    CHANNELS 3 Zrotation Xrotation Yrotation
                                    JOINT LeftFinger12
                                    {
                                        OFFSET   2.323470   0.000000   0.000000
                                        CHANNELS 3 Zrotation Xrotation Yrotation
                                        End Site
                                        {
                                            OFFSET   2.273050   0.000000   0.000000
                                        }
                                    }
                                }
                            }
                            JOINT LeftFinger2
                            {
                                OFFSET   8.364490   0.000016   1.078090
                                CHANNELS 3 Zrotation Xrotation Yrotation
                                JOINT LeftFinger21
                                {
                                    OFFSET   5.111610   0.000000   0.000000
                                    CHANNELS 3 Zrotation Xrotation Yrotation
                                    JOINT LeftFinger22
                                    {
                                        OFFSET   2.788150   0.000016   0.000000
                                        CHANNELS 3 Zrotation Xrotation Yrotation
                                        End Site
                                        {
                                            OFFSET   2.727660   0.000000   0.000000
                                        }
                                    }
                                }
                            }
                            JOINT LeftFinger3
                            {
                                OFFSET   7.899780   0.000015  -1.078090
                                CHANNELS 3 Zrotation Xrotation Yrotation
                                JOINT LeftFinger31
                                {
                                    OFFSET   4.646930   0.000000   0.000000
                                    CHANNELS 3 Zrotation Xrotation Yrotation
                                    JOINT LeftFinger32
                                    {
                                        OFFSET   2.323470   0.000000   0.000000
                                        CHANNELS 3 Zrotation Xrotation Yrotation
                                        End Site
                                        {
                                            OFFSET   2.273050   0.000000   0.000000
                                        }
                                    }
                                }
                            }
                            JOINT LeftFinger4
                            {
                                OFFSET   7.435090   0.000000  -3.252850
                                CHANNELS 3 Zrotation Xrotation Yrotation
                                JOINT LeftFinger41
                                {
                                    OFFSET   3.717550   0.000000   0.000000
                                    CHANNELS 3 Zrotation Xrotation Yrotation
                                    JOINT LeftFinger42
                                    {
                                        OFFSET   1.858770   0.000000   0.000000
                                        CHANNELS 3 Zrotation Xrotation Yrotation
                                        End Site
                                        {
                                            OFFSET   1.818440   0.000000   0.000000
                                        }
                                    }
                                }
                            }
                        }
                    }
                }
            }
            JOINT RightCollar
            {
                OFFSET  -3.911910  19.017000  -0.467062
                CHANNELS 3 Zrotation Xrotation Yrotation
                JOINT RightShoulder
                {
                    OFFSET -10.383700   0.000014   0.000000
                    CHANNELS 3 Zrotation Xrotation Yrotation
                    JOINT RightElbow
                    {
                        OFFSET -26.662100   0.001225   0.001091
                        CHANNELS 3 Zrotation Xrotation Yrotation
                        JOINT RightWrist
                        {
                            OFFSET -28.869000  -0.000020  -0.000085
                            CHANNELS 3 Zrotation Xrotation Yrotation
                            JOINT RightFinger0
                            {
                                OFFSET  -2.044650  -2.323490   3.252850
                                CHANNELS 3 Zrotation Xrotation Yrotation
                                JOINT RightFinger01
                                {
                                    OFFSET  -3.088130   0.000000   0.000000
                                    CHANNELS 3 Zrotation Xrotation Yrotation
                                    JOINT RightFinger02
                                    {
                                        OFFSET  -2.639460   0.000000   0.000000
                                        CHANNELS 3 Zrotation Xrotation Yrotation
                                        End Site
                                        {
                                            OFFSET  -2.582190   0.000000   0.000000
                                        }
                                    }
                                }
                            }
                            JOINT RightFinger1
                            {
                                OFFSET  -8.364480   0.000000   3.252850
                                CHANNELS 3 Zrotation Xrotation Yrotation
                                JOINT RightFinger11
                                {
                                    OFFSET  -4.646930   0.000000   0.000000
                                    CHANNELS 3 Zrotation Xrotation Yrotation
                                    JOINT RightFinger12
                                    {
                                        OFFSET  -2.323470   0.000000   0.000000
                                        CHANNELS 3 Zrotation Xrotation Yrotation
                                        End Site
                                        {
                                            OFFSET  -2.273050   0.000000   0.000000
                                        }
                                    }
                                }
                            }
                            JOINT RightFinger2
                            {
                                OFFSET  -8.364480   0.000000   1.078090
                                CHANNELS 3 Zrotation Xrotation Yrotation
                                JOINT RightFinger21
                                {
                                    OFFSET  -5.111620   0.000000   0.000000
                                    CHANNELS 3 Zrotation Xrotation Yrotation
                                    JOINT RightFinger22
                                    {
                                        OFFSET  -2.788160   0.000000   0.000000
                                        CHANNELS 3 Zrotation Xrotation Yrotation
                                        End Site
                                        {
                                            OFFSET  -2.727660   0.000000   0.000000
                                        }
                                    }
                                }
                            }
                            JOINT RightFinger3
                            {
                                OFFSET  -7.899780   0.000000  -1.078090
                                CHANNELS 3 Zrotation Xrotation Yrotation
                                JOINT RightFinger31
                                {
                                    OFFSET  -4.646930   0.000000   0.000000
                                    CHANNELS 3 Zrotation Xrotation Yrotation
                                    JOINT RightFinger32
                                    {
                                        OFFSET  -2.323470   0.000000   0.000000
                                        CHANNELS 3 Zrotation Xrotation Yrotation
                                        End Site
                                        {
                                            OFFSET  -2.273050   0.000000   0.000000
                                        }
                                    }
                                }
                            }
                            JOINT RightFinger4
                            {
                                OFFSET  -7.435090   0.000000  -3.252850
                                CHANNELS 3 Zrotation Xrotation Yrotation
                                JOINT RightFinger41
                                {
                                    OFFSET  -3.717550   0.000000   0.000000
                                    CHANNELS 3 Zrotation Xrotation Yrotation
                                    JOINT RightFinger42
                                    {
                                        OFFSET  -1.858760   0.000000   0.000000
                                        CHANNELS 3 Zrotation Xrotation Yrotation
                                        End Site
                                        {
                                            OFFSET  -1.818440   0.000000   0.000000
                                        }
                                    }
                                }
                            }
                        }
                    }
                }
            }
        }
    }
    JOINT LeftHip
    {
        OFFSET   9.783030   0.000000   0.000000
        CHANNELS 3 Zrotation Xrotation Yrotation
        JOINT LeftKnee
        {
            OFFSET   0.000063 -41.789100   0.000608
            CHANNELS 3 Zrotation Xrotation Yrotation
            JOINT LeftAnkle
            {
                OFFSET   0.000048 -41.133200  -0.000184
                CHANNELS 3 Zrotation Xrotation Yrotation
                JOINT LeftToe
                {
                    OFFSET   0.000000  -6.358960  14.674500
                    CHANNELS 3 Zrotation Xrotation Yrotation
                    End Site
                    {
                        OFFSET   0.000000   0.000000   3.913200
                    }
                }
            }
        }
    }
    JOINT RightHip
    {
        OFFSET  -9.783030   0.000000   0.000000
        CHANNELS 3 Zrotation Xrotation Yrotation
        JOINT RightKnee
        {
            OFFSET   0.000071 -41.789100   0.001239
            CHANNELS 3 Zrotation Xrotation Yrotation
            JOINT RightAnkle
            {
                OFFSET   0.000037 -41.133200  -0.000166
                CHANNELS 3 Zrotation Xrotation Yrotation
                JOINT RightToe
                {
                    OFFSET   0.000000  -6.358960  14.674500
                    CHANNELS 3 Zrotation Xrotation Yrotation
                    End Site
                    {
                        OFFSET   0.000000   0.000000   3.913200
                    }
                }
            }
        }
    }
}
MOTION
Frames: 5
Frame Time:   0.016667
  0.302468  89.437300   0.782448  -2.830260 -12.828100  -7.278010   0.701728   9.749140  -0.978714   1.610550  19.483800  -2.127050   2.915930   3.951970  -0.201209   4.855420   7.951190 -20.250500  -5.021320   0.337745   8.884710 -76.065300  15.512700  -6.201460  -1.895900   0.254204 -21.194800  13.651000  -3.146680  -1.407370  40.187700  36.330200 -55.655100 -35.017000  -0.002748   0.002109 -12.547300  -0.003439   0.002631 -37.388600   1.471580  -1.922570 -30.610800  -0.001581  -0.016645 -21.427500  -0.001011  -0.012657 -33.526300  -3.643610   5.476780 -50.551100  -0.045713  -0.067511 -33.667000  -0.015198  -0.053022 -28.488700  -4.073480   7.457820 -40.446000  -0.010112  -0.026744 -26.937100   0.002192  -0.018615 -37.219400  -5.148950   6.746140 -56.285700   0.008198  -0.004302 -37.486300   0.008574   0.000880   4.958360  -0.096747   9.449990  60.969700 -12.448900  28.060900 -11.773900 -11.055100  78.513400 -59.060000 -29.407400  -5.222310 -59.022000  43.050800  82.466700  17.392600  -0.005871   0.002028   3.696310  -0.002339   0.003723  26.469100  -2.342360  -4.714830  21.730400  -0.000051  -0.008819  15.211200  -0.000327   0.001022  25.509000  -2.264960  -4.753670  25.598900  -0.003016  -0.009088  17.048900  -0.000539  -0.001969  22.852800  -2.044410  -4.851710  22.940100  -0.001539   0.002633  15.278100  -0.002982   0.002895  26.519300  -2.350640  -4.711200  39.917400   0.001101  -0.000595  26.585000   0.001044   0.002907   2.873630  15.484700   0.917568   0.155436   1.167700  15.305100  -2.397200  -4.114120   4.868730   0.000000   0.000000  -0.000000  -0.280022  12.031800  -6.536470  -2.062870   5.463980 -10.651600   1.787290  -3.931650   7.676310  -0.000000   0.000000  -0.000000
  0.248684  89.437200   0.753266  -2.909250 -12.822600  -7.575610   0.686647   9.746510  -0.986705   1.581560  19.478700  -2.141440   2.878250   3.857280  -0.193887   4.790330   7.762590 -19.772500  -4.990810   0.300111   8.786690 -75.988000  15.367600  -6.081270  -1.920840   0.398079 -22.156300  13.605900  -3.490780  -1.617540  40.393100  36.540900 -55.665300 -34.904700  -0.004161   0.004256 -12.468700  -0.003442   0.004005 -37.501600   1.478630  -1.927010 -30.703700  -0.001585  -0.016819 -21.492600  -0.001013  -0.012804 -33.682800  -3.636800   5.434760 -50.783300  -0.053890  -0.062488 -33.821700  -0.020939  -0.050675 -28.494100  -4.081010   7.468900 -40.583800   0.008621   0.001357 -27.028800   0.001932   0.002950 -37.446400  -5.197040   6.742750 -56.629800   0.038533   0.037994 -37.715500   0.010983   0.034231   4.982390  -0.179073   9.448150  60.901200 -12.733200  28.486300 -11.975200 -11.043300  78.499200 -58.600300 -28.365400  -1.710110 -58.987500  43.407200  82.536900  17.966900  -0.005192   0.001766   3.983460  -0.001881   0.002731  26.101700  -2.400260  -4.901260  21.438300   0.000524  -0.009001  15.006800  -0.000446   0.000255  25.187900  -2.322070  -4.938590  25.286000  -0.003256  -0.009117  16.840500  -0.000600  -0.002313  22.709400  -2.108030  -5.032890  22.800100  -0.001393   0.002390  15.184900  -0.003083   0.002923  26.331600  -2.422560  -4.889470  39.649900   0.000898  -0.001499  26.406900   0.001291   0.002654   2.898730  15.495800   0.920371   0.152388   1.220820  15.435100  -2.403340  -4.144670   5.018730   0.000000   0.000000  -0.000000  -0.246581  12.108200  -6.541030  -2.042390   5.351570 -10.633200   1.753260  -3.884290   7.935520  -0.000000   0.000000   0.000000
  0.203264  89.437300   0.719954  -2.977270 -12.823800  -7.833390   0.664350   9.756550  -0.968083   1.533360  19.499400  -2.100400   2.852310   3.724000  -0.185464   4.744120   7.494750 -19.217900  -4.947300   0.232711   8.669570 -75.886300  15.213800  -6.022730  -1.931170   0.564007 -23.056600  13.535400  -3.786910  -1.821480  40.593200  36.756000 -55.595700 -34.809200  -0.005803   0.004123 -12.408700  -0.003440   0.003317 -37.574600   1.431960  -1.862830 -30.762400  -0.000075  -0.007205 -21.533700  -0.001012  -0.005438 -33.803200  -3.631500   5.402490 -50.962000  -0.045789  -0.042497 -33.940700  -0.019495  -0.036674 -28.490800  -4.125380   7.549310 -40.649200   0.015945   0.014643 -27.072300   0.001590   0.012974 -37.616600  -5.279990   6.799840 -56.895800   0.039156   0.043442 -37.892600   0.010827   0.037666   5.037490  -0.320767   9.444340  60.834000 -12.824500  28.835300 -12.272900 -11.105800  78.301900 -58.512000 -27.556000   1.161430 -58.845200  43.762500  82.362400  18.783000  -0.004553   0.000944   4.391520  -0.001136   0.001233  25.849200  -2.586610  -5.333900  21.246100   0.001134  -0.009082  14.872200  -0.000579  -0.000491  24.950600  -2.494900  -5.356200  25.069500  -0.003496  -0.009054  16.696300  -0.000661  -0.002653  22.627500  -2.277300  -5.453460  22.736400  -0.001227   0.002121  15.142500  -0.003174   0.002914  26.244100  -2.617170  -5.299060  39.534900   0.000694  -0.001615  26.330200   0.001525   0.002384   2.918410  15.495500   0.915569   0.148755   1.285330  15.542800  -2.404250  -4.181260   5.160480   0.000000   0.000000  -0.000000  -0.234604  12.032900  -6.547480  -2.024110   5.392680 -10.646800   1.732550  -3.848950   8.198830   0.000000   0.000000   0.000000
  0.162923  89.438100   0.685009  -3.034130 -12.832100  -8.042370   0.640071   9.777880  -0.925174   1.476060  19.543200  -2.007940   2.832130   3.567800  -0.176387   4.706150   7.180770 -18.561600  -4.913650   0.142357   8.547640 -75.787600  15.083200  -6.004340  -1.917550   0.731738 -23.871700  13.480400  -4.049930  -1.998890  40.777200  36.961400 -55.481200 -34.730000  -0.007680   0.003191 -12.363900  -0.003438   0.001312 -37.628700   1.344860  -1.744480 -30.804200   0.001435   0.002408 -21.563000  -0.001011   0.001928 -33.902200  -3.627000   5.375980 -51.108900  -0.030443  -0.021141 -34.038600  -0.015180  -0.019537 -28.481600  -4.194270   7.677420 -40.674100   0.018057   0.018517 -27.088900   0.001341   0.015894 -37.750200  -5.379510   6.901950 -57.112900   0.039245   0.044221 -38.037200   0.009740   0.038156   5.111330  -0.502293   9.435990  60.818800 -12.811600  29.101100 -12.599000 -11.161300  77.996000 -58.637000 -27.163700   3.457280 -58.529200  44.068300  81.996800  19.683700  -0.004230  -0.000060   4.841840  -0.000468  -0.000000  25.648300  -2.847840  -5.914280  21.103500   0.001744  -0.009094  14.772400  -0.000714  -0.001221  24.769100  -2.747630  -5.938080  24.909700  -0.003733  -0.008892  16.589900  -0.000722  -0.002975  22.565000  -2.515840  -6.035740  22.695800  -0.001048   0.001822  15.115400  -0.003261   0.002897  26.182300  -2.892670  -5.864970  39.492800   0.000490  -0.001632  26.302200   0.001751   0.002112   2.935570  15.493000   0.902878   0.145481   1.355560  15.626000  -2.401860  -4.220510   5.286830  -0.000000   0.000000   0.000000  -0.230294  11.957500  -6.558380  -2.004120   5.433520 -10.675400   1.717200  -3.818960   8.433010  -0.000000   0.000000   0.000000
  0.126337  89.441900   0.650892  -3.079120 -12.846900  -8.195040   0.616171   9.804180  -0.865252   1.420060  19.597100  -1.881750   2.814640   3.399040  -0.167022   4.671300   6.842150 -17.755300  -4.897250   0.030306   8.449770 -75.705200  15.007300  -6.065650  -1.861570   0.893050 -24.544100  13.475500  -4.272930  -2.110270  40.922000  37.127900 -55.321700 -34.672600  -0.009686   0.000320 -12.336800  -0.003438  -0.002503 -37.672200   1.250830  -1.619850 -30.837500   0.001141   0.002003 -21.586300  -0.001011   0.001591 -33.984000  -3.623080   5.354200 -51.230200  -0.012174  -0.007094 -34.119400  -0.005136  -0.006947 -28.472600  -4.261300   7.801400 -40.680600   0.012858   0.013373 -27.093200   0.001054   0.011450 -37.853200  -5.479140   7.003090 -57.283500   0.021134   0.028003 -38.150900   0.004106   0.023622   5.190920  -0.724428   9.411390  60.970600 -12.731000  29.246200 -12.836000 -11.044500  77.723800 -58.930800 -27.115700   5.133820 -57.992600  44.279400  81.428500  20.656800  -0.003827  -0.000596   5.328370   0.000215  -0.000618  25.526300  -3.207860  -6.683810  21.039300   0.002313  -0.008965  14.727500  -0.000833  -0.001937  24.661000  -3.109070  -6.734140  24.848300  -0.003966  -0.008648  16.549000  -0.000788  -0.003267  22.508000  -2.825610  -6.772820  22.679400  -0.000858   0.001511  15.104500  -0.003350   0.002880  26.144400  -3.250390  -6.578420  39.487000   0.000295  -0.001444  26.298300   0.001970   0.001856   2.950270  15.482600   0.882503   0.143862   1.430780  15.682300  -2.395160  -4.260290   5.389440  -0.000000   0.000000  -0.000000  -0.204784  12.139200  -6.578170  -1.977270   5.238480 -10.712000   1.705790  -3.789440   8.607850  -0.000000   0.000000   0.000000
